<svg width="257" height="80" xmlns="http://www.w3.org/2000/svg"><g fill="none" fill-rule="evenodd"><path d="M38.68 72.21l.208-.247 8.42-10.38H36.104c-14.048 0-25.478-11.43-25.478-25.478 0-14.05 11.43-25.479 25.478-25.479h13.088L57.899 0H36.104C16.196 0 0 16.197 0 36.105 0 56.013 16.196 72.21 36.104 72.21h2.577z" fill="#0E39A9"/><path d="M0 36.105C0 45.29 3.453 53.68 9.122 60.059l6.823-8.401a25.343 25.343 0 01-5.319-15.553c0-14.05 11.43-25.479 25.478-25.479H49.27L57.9 0H36.104C16.196 0 0 16.196 0 36.105" fill="#1974D2"/><path fill="#0E39A9" d="M47.307 61.583l10.626-13.099v-18.09H35.359L26.75 41.022h20.556zM243.223 51.273c-3.96 0-6.725 2.647-6.725 6.437v.096c0 3.758 2.828 6.485 6.725 6.485 3.97 0 6.964-2.787 6.964-6.485v-.096c0-3.67-2.994-6.437-6.964-6.437m13.573-1.966V66.52c0 4.319-1.124 7.633-3.34 9.85-2.345 2.344-5.949 3.532-10.711 3.532-3.306 0-6.422-.639-9.265-1.9a2.825 2.825 0 01-1.52-1.636 2.896 2.896 0 01.126-2.26 2.857 2.857 0 013.78-1.328c2.14.99 4.342 1.471 6.734 1.471 4.933 0 7.54-2.507 7.54-7.25v-.67c-2.368 2.592-5.08 3.807-8.448 3.807-7.76 0-11.947-6.328-11.947-12.281v-.096c0-8.009 6.155-12.33 11.947-12.33 4.168 0 6.747 1.85 8.412 3.584a3.358 3.358 0 013.34-3.057 3.356 3.356 0 013.352 3.352m-38.83-3.305c-3.001 0-5.454 1.16-7.463 3.539a3.381 3.381 0 00-3.357-3.012 3.38 3.38 0 00-3.376 3.376v19.438a3.38 3.38 0 003.376 3.377 3.38 3.38 0 003.377-3.377V57.997c0-3.533 2.056-5.816 5.24-5.816 3.194 0 4.954 2.031 4.954 5.72v11.466a3.356 3.356 0 003.353 3.353 3.356 3.356 0 003.353-3.353V56.13c0-6.247-3.624-10.128-9.457-10.128m-20.093-7.787h-.697a3.12 3.12 0 00-3.116 3.116 3.12 3.12 0 003.116 3.116h.697a3.12 3.12 0 003.116-3.116 3.12 3.12 0 00-3.116-3.116m-.348 8.314a3.381 3.381 0 00-3.378 3.376v19.438a3.38 3.38 0 003.378 3.377 3.38 3.38 0 003.377-3.377V49.905a3.38 3.38 0 00-3.377-3.376m-15.745-.527c-3.002 0-5.454 1.16-7.463 3.539a3.38 3.38 0 00-3.357-3.012 3.38 3.38 0 00-3.377 3.376v19.438a3.38 3.38 0 003.377 3.377 3.38 3.38 0 003.377-3.377V57.997c0-3.533 2.057-5.816 5.24-5.816 3.194 0 4.955 2.031 4.955 5.72v11.466a3.356 3.356 0 003.353 3.353 3.356 3.356 0 003.351-3.353V56.13c0-6.247-3.623-10.128-9.456-10.128m-46.363 14.32c-3.483 0-5.48 1.369-5.48 3.756v.096c0 2.048 1.755 3.372 4.475 3.372 3.646 0 6.293-2.084 6.293-4.953v-1.406c-1.166-.418-2.96-.866-5.288-.866m8.849-11.739c1.893 1.847 2.857 4.582 2.857 8.123v12.16a3.285 3.285 0 01-3.28 3.28 3.287 3.287 0 01-3.197-2.538c-2.042 2.01-4.739 3.065-7.863 3.065-4.554 0-9.457-2.584-9.457-8.26v-.095c0-5.383 4.09-8.596 10.942-8.596 2.765 0 4.757.426 6.341.893v-.005c0-4.173-3.162-5.049-5.815-5.049-1.72 0-3.278.237-4.902.747-1.485.468-3.055-.332-3.572-1.815a2.89 2.89 0 01.132-2.224c.337-.692.92-1.21 1.645-1.459 2.39-.822 4.691-1.189 7.463-1.189 3.807 0 6.818 1.024 8.706 2.962m-40.789 8.24h11.92c-.443-2.863-2.19-5.74-5.895-5.74-3.053 0-5.375 2.233-6.025 5.74m18.64 2.66a2.1 2.1 0 01-2.112 2.084h-16.47c.721 3.409 3.258 5.502 6.732 5.502 1.986 0 3.578-.526 5.16-1.706a2.798 2.798 0 013.518.162c.619.549.964 1.34.944 2.168a2.807 2.807 0 01-1.042 2.123c-2.384 1.928-5.303 2.905-8.675 2.905-7.783 0-13.432-5.708-13.432-13.574V58.6a13.43 13.43 0 013.932-9.462c2.424-2.412 5.603-3.731 8.964-3.71 8.622.047 12.481 7.092 12.481 14.052m-27.906 6.39H81.045c-.725 0-1.314-.589-1.314-1.313v-23.7a3.14 3.14 0 00-3.138-3.137h-.527a3.14 3.14 0 00-3.137 3.137v29.257c0 1.12.91 2.03 2.03 2.03h19.252a3.14 3.14 0 003.137-3.136 3.14 3.14 0 00-3.137-3.137m71.41-16.248a3.508 3.508 0 01-2.52 3.387c-2.141.636-4.856 1.898-5.632 4.294-.534 1.369-.8 2.968-.8 4.778v7.26a3.38 3.38 0 01-3.377 3.377 3.38 3.38 0 01-3.377-3.376V49.349a3.38 3.38 0 013.377-3.377 3.38 3.38 0 013.376 3.377v.844c1.013-1.702 2.313-2.964 3.88-3.76a3.423 3.423 0 013.365.15 3.548 3.548 0 011.708 3.041"/><path d="M187.948 29.3a7.66 7.66 0 01-.855.047c-1.836 0-2.655-.833-2.655-2.703V14.7h3.852a2.95 2.95 0 002.946-2.946 2.95 2.95 0 00-2.946-2.946h-3.852v-3.59a3.357 3.357 0 00-3.353-3.352 3.356 3.356 0 00-3.353 3.352v3.59h-.262a2.95 2.95 0 00-2.946 2.946 2.95 2.95 0 002.946 2.946h.262v12.852c0 5.227 2.602 7.877 7.733 7.877 1.384 0 2.599-.185 3.711-.566a2.89 2.89 0 001.965-2.723c0-.812-.346-1.587-.95-2.127a2.872 2.872 0 00-2.243-.714m-25.915-6.126c-3.483 0-5.48 1.37-5.48 3.757v.096c0 2.049 1.755 3.373 4.475 3.373 3.646 0 6.293-2.083 6.293-4.953V24.04c-1.166-.418-2.96-.867-5.288-.867m8.85-11.737c1.892 1.845 2.857 4.58 2.857 8.121v12.016c0 1.66-1.17 3.164-2.814 3.393a3.287 3.287 0 01-3.663-2.508c-2.044 2.01-4.74 3.066-7.863 3.066-4.555 0-9.457-2.584-9.457-8.26v-.095c0-5.382 4.09-8.595 10.941-8.595 2.767 0 4.758.426 6.341.893v-.006c0-4.173-3.162-5.048-5.814-5.048-1.72 0-3.277.237-4.902.747a2.866 2.866 0 01-3.573-1.816 2.902 2.902 0 01.348-2.597c.368-.546.95-.924 1.574-1.135 2.337-.788 4.601-1.14 7.318-1.14 3.809 0 6.818 1.025 8.706 2.964m-34.76 2.497c-3.052 0-5.374 2.235-6.025 5.742h11.92c-.443-2.864-2.19-5.742-5.896-5.742m12.616 8.401c0 1.156-.949 2.084-2.111 2.084h-16.47c.72 3.41 3.258 5.502 6.731 5.502 1.986 0 3.578-.526 5.16-1.706a2.801 2.801 0 013.518.162 2.814 2.814 0 01-.098 4.291c-2.383 1.928-5.302 2.906-8.675 2.906-7.783 0-13.43-5.71-13.43-13.575v-.544c0-3.53 1.432-6.978 3.93-9.463 2.408-2.394 5.564-3.71 8.893-3.71h.07c8.623.047 12.482 7.092 12.482 14.053m-26.902-12.9a3.42 3.42 0 00-3.363-.148c-1.568.796-2.868 2.057-3.88 3.76v-.845a3.38 3.38 0 00-3.377-3.377 3.381 3.381 0 00-3.377 3.377v19.995a3.38 3.38 0 003.377 3.377 3.38 3.38 0 003.376-3.377v-7.26c0-1.81.266-3.41.8-4.78.777-2.395 3.491-3.657 5.633-4.293a3.506 3.506 0 002.52-3.386 3.548 3.548 0 00-1.709-3.042M105.2 18.764V28.2c0 1.264-.593 2.45-1.585 3.171-2.64 1.918-7.013 4.204-12.851 4.204-10.501 0-17.835-7.275-17.835-17.691v-.096C72.929 7.813 80.72 0 90.669 0c4.313 0 7.592.855 10.629 2.771a3.2 3.2 0 011.455 2.21c.14.9-.115 1.816-.7 2.513l-.25.299c-1.025 1.22-2.829 1.471-4.197.584-2.14-1.388-4.354-2.006-7.178-2.006-5.838 0-10.41 4.972-10.41 11.32v.096c0 6.778 4.497 11.512 10.937 11.512 2.049 0 4.067-.44 5.839-1.27 1.09-.512 1.795-1.668 1.795-2.945v-3.633h-5.527a3.042 3.042 0 110-6.084h8.74a3.397 3.397 0 013.398 3.397" fill="#1974D2"/></g></svg>